:SAMPLES-PER-SECOND 24
:FULLY-SPECIFIED
:DEGREES
578
root  2.40349 36.1179 22.8462 -179.341 -61.6452 172.893
RightUpLeg  -12.1341 -12.2884 -20.2086
RightLeg  46.616 5.94272 6.38991
RightFoot  -19.9682 0.784028 12.0992
RightToes  -1.74623e-010 0 -2.59999e-017
Spine  8.27582 -0.658276 -4.38939
Spine1  12.2223 -1.69051 -0.44434
HEad  -27.8356 -31.4156 19.0687
LeftShoulder1  1.55641 -2.58084 -19.0502
LeftArm  14.542 -19.4608 -44.1534
LeftForeArm  107.14 -78.6827 -113.642
LeftHand  0.954581 15.1161 11.7803
RightShoulder  2.89861 5.14221 27.5404
RightArm  2.01451 -7.26832 28.9202
RightForeArm  7.0346 20.2772 8.08272
RightHand  -0.445178 2.85894 -6.46674
LeftUpLeg  -7.17259 8.52771 11.5344
LeftLeg  44.5694 -2.10947 -1.78566
LeftFoot  -20.9387 -1.18868 -15.542
LeftToes  -6.27559e-011 -2.10356e-011 8.24929e-012
579
root  2.34647 36.9425 22.9077 179.139 -60.0533 173.857
RightUpLeg  -10.0861 -10.8409 -19.6343
RightLeg  42.0991 6.66145 6.13698
RightFoot  -15.9441 0.419532 13.0287
RightToes  -1.74623e-010 0 -2.59999e-017
Spine  7.53973 -0.457414 -5.43771
Spine1  13.4566 -2.00228 1.08523
HEad  -27.0638 -31.4654 18.2343
LeftShoulder1  1.81738 -3.03357 -21.4216
LeftArm  15.3372 -13.1141 -49.222
LeftForeArm  105.795 -79.6315 -104.702
LeftHand  1.42854 17.8101 13.6824
RightShoulder  3.1875 5.43366 29.7553
RightArm  -32.7358 -0.583039 32.1201
RightForeArm  10.7407 6.41426 8.49057
RightHand  -1.99542 2.85147 -27.6378
LeftUpLeg  -4.06724 9.81858 12.0261
LeftLeg  40.1955 -2.16549 -1.54391
LeftFoot  -17.5165 -0.783035 -16.4681
LeftToes  -6.27559e-011 -2.10356e-011 8.24929e-012
580
root  2.09202 38.7561 22.999 178.861 -59.2252 174.641
RightUpLeg  -6.57392 -11.2821 -19.0881
RightLeg  32.4749 8.06314 5.26678
RightFoot  -6.12764 -0.705784 14.5086
RightToes  -1.74623e-010 0 -2.59999e-017
Spine  6.81338 -0.503532 -5.25647
Spine1  11.5815 -2.01392 2.01861
HEad  -22.8455 -32.3709 15.8871
LeftShoulder1  2.02511 -3.43581 -22.9004
LeftArm  18.4479 -3.98986 -52.9345
LeftForeArm  103.9 -79.926 -100.194
LeftHand  0.91978 14.9156 11.694
RightShoulder  3.10775 5.2988 29.3877
RightArm  -40.5771 -1.53955 37.3109
RightForeArm  -10.8707 5.33556 8.35577
RightHand  -3.97532 4.46961 -44.757
LeftUpLeg  -0.675268 11.0002 11.7264
LeftLeg  31.4815 -1.64686 -0.719995
LeftFoot  -7.06731 0.650877 -16.2211
LeftToes  -6.27559e-011 -2.10356e-011 8.24929e-012
581
root  1.89425 40.5603 23.1873 -179.942 -58.412 174.769
RightUpLeg  -5.26074 -12.28 -18.5497
RightLeg  23.6124 8.37606 3.79826
RightFoot  9.01632 -2.74402 15.5644
RightToes  -1.74623e-010 0 -2.59999e-017
Spine  5.38172 -0.419562 -4.12878
Spine1  9.97557 -1.25652 1.2203
HEad  -19.2447 -33.215 15.1069
LeftShoulder1  2.0313 -3.56327 -22.4374
LeftArm  22.4623 1.83918 -54.2718
LeftForeArm  93.7973 -79.9657 -92.3461
LeftHand  0.0696321 8.79376 3.6685
RightShoulder  2.92448 5.0337 28.3121
RightArm  -30.8811 -3.56411 39.4953
RightForeArm  -20.7108 5.75968 11.1916
RightHand  -1.63008 -0.277386 -32.4677
LeftUpLeg  0.417298 11.5382 10.5534
LeftLeg  23.7194 -0.301875 0.207318
LeftFoot  7.68697 2.26903 -13.7432
LeftToes  -6.27559e-011 -2.10356e-011 8.24929e-012
582
root  1.80116 41.7447 23.368 -179.183 -57.8092 174.577
RightUpLeg  -4.61383 -12.6125 -18.0246
RightLeg  18.0393 5.73524 1.90077
RightFoot  17.7543 -3.78351 15.0237
RightToes  -1.74623e-010 0 -2.59999e-017
Spine  4.11537 -0.221817 -3.17439
Spine1  10.267 -0.492505 0.0808571
HEad  -18.2072 -33.7069 15.3545
LeftShoulder1  1.96728 -3.71913 -20.8399
LeftArm  25.5927 3.93277 -54.7111
LeftForeArm  89.0884 -79.9495 -88.1455
LeftHand  0.00440375 4.15177 -3.37256
RightShoulder  2.77801 4.85889 27.2416
RightArm  -12.6808 -6.33634 40.264
RightForeArm  -11.43 12.9121 10.3083
RightHand  -0.0861636 0.115926 -5.51121
LeftUpLeg  1.42176 10.3158 9.58488
LeftLeg  18.478 0.170693 0.297351
LeftFoot  14.0146 2.71643 -12.3953
LeftToes  -6.27559e-011 -2.10356e-011 8.24929e-012
